<?xml version="1.0" encoding="utf-8"?>
<!-- Generator: Adobe Illustrator 27.0.0, SVG Export Plug-In . SVG Version: 6.00 Build 0)  -->
<svg version="1.1"
	 id="Capa_1" shape-rendering="geometricPrecision" text-rendering="geometricPrecision" image-rendering="optimizeQuality"
	 xmlns="http://www.w3.org/2000/svg" xmlns:xlink="http://www.w3.org/1999/xlink" x="0px" y="0px" viewBox="0 0 1602.6 1518"
	 style="enable-background:new 0 0 1602.6 1518;" xml:space="preserve">
<style type="text/css">
	.st0{fill:#2AC64B;}
	.st1{fill:#008A5A;}
	.st2{fill:#009550;}
	.st3{fill:#00983E;}
	.st4{fill:#009A37;}
	.st5{fill:#00863F;}
	.st6{fill:#06CBF6;}
	.st7{fill:url(#SVGID_1_);}
	.st8{fill:#666565;}
	.st9{fill:#fff;}
	.st10{fill:#009938;}
	.st11{fill-rule:evenodd;clip-rule:evenodd;fill:url(#SVGID_00000037675581875634626890000014372231625356557466_);}
	.st12{fill-rule:evenodd;clip-rule:evenodd;fill:url(#SVGID_00000002345961105241335320000006539244027506520964_);}
	.st13{fill-rule:evenodd;clip-rule:evenodd;fill:url(#SVGID_00000049223511870531382160000017072623265526829195_);}
	.st14{fill-rule:evenodd;clip-rule:evenodd;fill:#97CC1A;}
	.st15{fill-rule:evenodd;clip-rule:evenodd;fill:url(#SVGID_00000009570391784236289800000007692225377140195713_);}
	.st16{fill-rule:evenodd;clip-rule:evenodd;fill:url(#SVGID_00000050639460479376549090000009040237723271589540_);}
	.st17{fill-rule:evenodd;clip-rule:evenodd;fill:url(#SVGID_00000078760146337076065550000014028978160851879055_);}
	.st18{fill-rule:evenodd;clip-rule:evenodd;fill:url(#SVGID_00000070105053175291505900000002625304800451174309_);}
	.st19{fill-rule:evenodd;clip-rule:evenodd;fill:url(#SVGID_00000172428103723115720990000008504221474742732953_);}
	.st20{fill-rule:evenodd;clip-rule:evenodd;fill:url(#SVGID_00000176044608039084596870000017520867167104226998_);}
</style>
<g>
	<path class="st0" d="M450.8,359.9c-13-5.9-24.3-10.5-33.5-14c-1.9-14.5-3.3-29-4.2-43.5c-0.7-12-0.3-23.8,1.2-35.4
		c7.8,1.3,18.9,3.2,32.7,5.9c-1.4,16.5-1.5,33.8,0,52.1C447.9,336.7,449.1,348.3,450.8,359.9z M579.6,435.9
		c-32.9-24.2-63.9-42.9-90.7-57.3c-5.4-33.5-7.8-66.7-5.7-98.2c24.9,5.5,54.2,12.6,86.5,21.6C567.5,344.2,571.5,389.6,579.6,435.9
		L579.6,435.9z M917.8,453.5c-0.3,3.7-0.7,7.3-1.1,11c-45,23.5-89.8,55.2-130,97.9c-13,13.8-24.9,27.7-35.7,41.5
		c-12.2-15.4-25.2-31-39-46.7c-6.2-7-12.4-13.8-18.6-20.4c-10.3-69.3-16.9-137.6-18.1-201.7C755.2,363.5,841.7,402.1,917.8,453.5
		L917.8,453.5z"/>
	<path class="st1" d="M460.6,205.5c-6.7,20.4-11.6,42.9-13.7,67.3c-13.8-2.7-24.9-4.6-32.7-5.9c0.9-7.3,2.2-14.5,3.8-21.7
		C427.9,234.7,442.1,220.8,460.6,205.5z"/>
	<path class="st2" d="M617.3,117.2c-23.7,43.4-42.7,102-47.5,180.1c-0.1,1.5-0.2,3.1-0.2,4.6c-32.3-9-61.7-16.1-86.5-21.5
		c0-1.1,0.1-2.1,0.2-3.1c3.1-41,15.2-78.5,33.5-111.9C545,147.9,578.5,131,617.3,117.2z"/>
	<path class="st3" d="M917.8,453.5c-76.1-51.4-162.5-90-242.6-118.4c-1.5-76.3,4.4-146.5,20.2-204.6c0.4-1.6,0.9-3.2,1.3-4.7
		c63.5,37.5,146.3,79.4,224.8,97.8C928.4,292.8,926.3,371.5,917.8,453.5L917.8,453.5z"/>
	<path class="st4" d="M1187.5,302.4c-1.9,32.2-6.5,64.1-13.7,96c-9.1,0.3-19.5,0.9-31.1,1.9c5.1-24.6,8.8-49.7,10.9-75.4
		c6.9-86.2-21-151.9-53.2-197.8c9.5,2.7,18.4,5.3,26.8,7.9C1163.4,181,1191.3,239.9,1187.5,302.4z M1107,404.5
		c-25.2,3.6-53.7,9.3-83.8,17.8c6.9-43.3,9.9-85.6,7.5-125c-5.5-90-29.8-153.9-58.5-198.8c26.9,4.4,52.5,9.7,76.1,15.2
		c37.6,44.4,64.2,99.8,69,163.6C1120.3,317.9,1115.9,361.2,1107,404.5z"/>
	<path class="st5" d="M921.5,223.5c-78.6-18.4-161.3-60.2-224.8-97.8c3.3-11.6,7.1-22.2,11.2-31.8c11.6-2,23.6-3.6,35.9-4.9
		c49.6-5.1,99.2-4.6,146.4-0.7c5.6,12.3,10.7,26.3,15,42.1C912.9,158.8,918.2,190.1,921.5,223.5z"/>
	<path class="st6" d="M582.3,46.5c-2.6,1.6-87,53.6-121.7,159c-18.5,15.2-32.7,29.2-42.5,39.8C441,145.8,532.6,64.5,582.3,46.5z
		 M635.7,87.5c-6.3,9-12.5,18.9-18.4,29.7c-38.8,13.7-72.3,30.7-100.6,48.2c21.6-39.7,52-73.5,86.3-100.3
		C611.1,70.9,622.3,78.6,635.7,87.5L635.7,87.5z"/>
	
		<linearGradient id="SVGID_1_" gradientUnits="userSpaceOnUse" x1="-44547.1016" y1="25382.0293" x2="-42689.9805" y2="25325.75" gradientTransform="matrix(0.253 0 0 -0.253 11896.8359 6478.0757)">
		<stop  offset="0" style="stop-color:#0288F7"/>
		<stop  offset="1" style="stop-color:#2EE2BD"/>
	</linearGradient>
	<path class="st7" d="M1127.2,135.1c-8.4-2.6-17.3-5.2-26.8-7.9c-38.1-54.2-82.3-80.7-82.3-80.7C1047.4,57,1091.4,89.7,1127.2,135.1
		z M1048.2,113.7c-23.6-5.5-49.1-10.8-76.1-15.2C923.8,22.6,863.1,1,860.1,0C925.2,13.1,997,53.2,1048.2,113.7z M890.2,88.4
		c-47.2-3.9-96.7-4.4-146.4,0.7c-12.3,1.2-24.3,2.9-36,4.9C742.7,11.8,799.5,0,799.5,0h1.6C801.1,0,855.2,11.2,890.2,88.4z M740.4,0
		c-2.8,1-57.7,20.5-104.7,87.5c-13.4-8.9-24.6-16.6-32.7-22.4C645.8,31.7,694.7,9.2,740.4,0L740.4,0z"/>
	<path class="st8" d="M800.3,1066.4h58.3l21.6-94.1H720.4l21.6,94.1H800.3z"/>
	<path class="st9" d="M1282.1,1207.2h3.6c1.7,0,2.9-0.3,3.6-0.8c0.6-0.5,0.9-1.2,0.9-2.1c0-0.5-0.1-1-0.5-1.5
		c-0.3-0.4-0.7-0.8-1.3-1c-0.5-0.2-1.5-0.3-3-0.3h-3.4L1282.1,1207.2z M1279.1,1217.6v-18.5h6.4c2.2,0,3.7,0.2,4.7,0.5
		c1,0.3,1.8,0.9,2.3,1.8c0.6,0.9,0.9,1.8,0.9,2.7c0,1.4-0.5,2.5-1.4,3.5c-1,1-2.2,1.6-3.8,1.7c0.7,0.3,1.2,0.6,1.6,1
		c0.7,0.7,1.6,1.9,2.7,3.7l2.3,3.6h-3.6l-1.6-2.9c-1.3-2.3-2.3-3.7-3.1-4.3c-0.6-0.4-1.4-0.6-2.4-0.6h-1.8v7.9L1279.1,1217.6z
		 M1286.6,1193.8c-2.4,0-4.8,0.6-7.1,1.9c-2.3,1.2-4.1,3-5.4,5.3c-1.3,2.3-1.9,4.7-1.9,7.2c0,2.5,0.6,4.9,1.9,7.1
		c1.3,2.3,3,4,5.3,5.3c2.3,1.3,4.7,1.9,7.1,1.9c2.5,0,4.9-0.6,7.1-1.9c2.3-1.3,4.1-3,5.3-5.3c1.3-2.3,1.9-4.6,1.9-7.1
		c0-2.5-0.6-4.9-1.9-7.2c-1.3-2.3-3.1-4.1-5.4-5.3C1291.4,1194.4,1289,1193.8,1286.6,1193.8L1286.6,1193.8z M1286.6,1190.9
		c2.9,0,5.7,0.7,8.5,2.2c2.7,1.5,4.9,3.6,6.4,6.4c1.5,2.8,2.3,5.6,2.3,8.6c0,3-0.8,5.8-2.3,8.6c-1.5,2.7-3.6,4.9-6.4,6.4
		c-2.7,1.5-5.6,2.3-8.6,2.3c-3,0-5.8-0.8-8.6-2.3c-2.7-1.5-4.9-3.6-6.4-6.4c-1.5-2.7-2.3-5.6-2.3-8.6c0-3,0.8-5.9,2.3-8.6
		c1.5-2.8,3.7-4.9,6.4-6.4C1280.9,1191.7,1283.7,1190.9,1286.6,1190.9L1286.6,1190.9z M1085.5,1365.9l37,1.5l30.1-136.9l31.3,136.9
		h37.6l33.5-174.5h-28.6l-22.1,143.6h-5.2l-32.3-143.6h-26.2l-31.8,143.6h-4.1l-23.6-143.6h-30.9L1085.5,1365.9z M1012.6,1296.8
		l-22.1-81h-6.1l-21.6,81H1012.6z M1018.7,1319h-61.8l-12.9,48.4h-30.6l56.8-174.5h35.5l57.7,174.5h-31.5L1018.7,1319z M804.7,1275
		h37c15.9,0,28.8-12.9,28.8-28.8v-1.5c0-15.9-12.9-28.8-28.8-28.8h-37V1275z M870.5,1367.3l-40.1-70.5h-25.7v70.5h-30.9v-174.5h73.3
		c28.2,0,51.1,22.9,51.1,51.1v1.7c0,23-15.2,42.5-36.1,48.9l41.4,72.7H870.5z M722.2,1272.8v14.6c0,31.5-25.5,56.9-56.9,56.9h-17.6
		v-128.5h17.6C696.8,1215.8,722.2,1241.3,722.2,1272.8z M672.9,1192.8h-54v174.5h54c42.7,0,77.3-34.6,77.3-77.3v-19.8
		C750.2,1227.5,715.6,1192.8,672.9,1192.8z M591.7,1346.1h-4.1c-4,0-7.3-3.3-7.3-7.3v-145.7h-30.6v144.8c0,45.7,44.9,30.6,44.9,30.6
		L591.7,1346.1z M501.7,1289.6h-61.5c0,0,5.5-35,30.7-35C496.2,1254.6,501.7,1277,501.7,1289.6z M413.2,1301.9
		c0,46.8,29.7,63.1,54.5,68c24.8,5,54.2-12.8,54.2-12.8s-5.8-10.5-11.4-17.8c-3.5,2.3-24.8,17.2-46.6,6.7
		c-21.8-10.5-24.2-37-24.2-37h85.9c5.5-58.5-25.6-76-52.4-76C447.8,1233,413.2,1255.2,413.2,1301.9L413.2,1301.9z M404.7,1259.5
		c0,0,2.3-9.6,5.5-24.2c-28.8-13.7-55.6,27.7-55.6,27.7v-27.7h-24.5v131.4h28v-80.1C379.1,1249.9,404.7,1259.5,404.7,1259.5
		L404.7,1259.5z M283.8,1301.5c0,25.3-15.3,45.9-34.1,45.9s-34.1-20.5-34.1-45.9s15.3-45.9,34.1-45.9S283.8,1276.2,283.8,1301.5z
		 M248.8,1233c-34.3,0-62,30.6-62,68.5s27.8,68.5,62,68.5c34.3,0,62-30.6,62-68.5S283.1,1233,248.8,1233z M176.2,1345.6
		c-14.5,16.1-34.3,26.1-56.2,26.1c-44.5,0-80.5-41.1-80.5-91.8c0-50.7,36.1-91.8,80.5-91.8c19.8,0,37.8,8.1,51.9,21.6l-16.1,20.5
		c-9.2-9.9-21-15.9-34-15.9c-28.9,0-52.3,29.3-52.3,65.5c0,36.2,23.4,65.5,52.3,65.5c14.1,0,26.9-7.1,36.3-18.5L176.2,1345.6z"/>
	<path class="st10" d="M1252.6,1507.7c30.9-32.4,48.4-51.9,48.4-69.5c0-12.4-6.4-21.1-19.5-21.1c-8.6,0-16,5.7-21.9,13l-7.7-7.9
		c8.6-10,17.9-16.4,31.2-16.4c19,0,30.9,12.6,30.9,31.9c0,20.3-17.7,40.5-42,67.3c5.6-0.5,12-0.9,17.3-0.9h29.7v12h-66.5
		L1252.6,1507.7z M1386.6,1461.5c0-31.7-8.1-44.5-20.1-44.5c-12,0-20.1,12.8-20.1,44.5s8.1,45.3,20.1,45.3
		C1378.5,1506.8,1386.6,1493.2,1386.6,1461.5z M1333.5,1461.5c0-36.3,12.4-55.7,33-55.7s33,19.5,33,55.7c0,36.3-12.4,56.5-33,56.5
		S1333.5,1497.7,1333.5,1461.5z M1419.3,1504.3h23.6v-79.7h-18.7v-9c9.4-1.7,16.2-4.4,21.9-8h10.1v96.6h21.2v11.6h-58.1V1504.3z
		 M1495,1506.6l7.4-8.7c4.1,5.2,10.5,8.5,16.9,8.5c14.8,0,27.2-12.3,27.2-48.6c0-26.6-8.2-41-23-41c-10.1,0-17.9,9.5-17.9,23.7
		c0,14.1,6.3,23,19,23c6.7,0,15-4.2,22.1-15.3l0.5,11c-6.5,9.1-16.1,14.8-24.8,14.8c-17.8,0-29.3-11.3-29.3-33.5
		c0-20.7,13.9-34.7,30.4-34.7c20.1,0,35.2,16.9,35.5,50.8v2.4c-0.3,42.4-18.7,58.8-38.8,59h-1
		C1508.5,1517.8,1500.6,1512.9,1495,1506.6L1495,1506.6z"/>
	<path class="st9" d="M94.8,1460.4c0-35.9,20.5-57.8,48.6-57.8c14.7,0,24.3,7,30.5,13.7l-7.4,9.2c-5.4-5.8-12.2-10.5-22.8-10.5
		c-21.3,0-35,17.2-35,45c0,28,12.6,45.5,35.2,45.5c7.6,0,14.9-2.4,19.1-6.5v-29h-22.4v-11.7h34.7v46.8c-6.7,7.3-18.1,12.8-32,12.9
		h-1.1C114.5,1517.8,94.8,1496.4,94.8,1460.4L94.8,1460.4z M231,1465l10.6-7.3l32.3,58.3h-15.3L231,1465z M231.7,1457.4
		c16.5,0,25.5-7,25.5-21.4c0-14.6-9.1-19.9-25.5-19.9H214v41.3L231.7,1457.4z M200.5,1404.6h33.2c21.6,0,37,8.1,37,31.3
		c0,22.2-15.5,32.9-37,32.9H214v47.1h-13.5L200.5,1404.6z M296.5,1470.7h48.7v11.3h-48.7V1470.7z M313.4,1404.6h15.2l35.8,111.4
		h-14.3l-18.5-62.2c-3.8-12.4-7.2-24.7-10.6-37.5h-0.6c-3.3,12.9-6.7,25.1-10.5,37.5l-18.7,62.2h-13.7L313.4,1404.6z M408,1460.3
		c18.5,0,27.3-7.1,27.3-22.9c0-16.1-9.4-21.3-28-21.3h-15.1v44.2H408z M378.8,1404.6H409c23.7,0,39.7,8.4,39.7,32.8
		c0,23.4-15.9,34.4-39.1,34.4h-17.4v44.2h-13.5L378.8,1404.6z M470.1,1404.6h13.5v46.6h49.2v-46.6h13.5V1516h-13.5v-52.4h-49.2v52.4
		h-13.5V1404.6z M575.3,1404.6h13.5V1516h-13.5V1404.6z M611.5,1460.4c0-35.9,20.1-57.8,47-57.8c12.8,0,22.9,6.6,29.1,13.7l-7.4,9.2
		c-5.6-6.2-12.6-10.5-21.5-10.5c-20,0-33.3,17.2-33.3,45c0,28,12.7,45.5,32.8,45.5c10.1,0,17.8-4.6,24.5-12.5l7.4,8.9
		c-8.2,10-18.4,15.9-31.8,16.1h-1.1C631.1,1517.8,611.5,1496.4,611.5,1460.4z M698.2,1501.5l8.1-9.7c7.6,8.3,18.2,13.8,29.2,13.8
		c13.9,0,22.1-7.3,22.1-18.1c0-11.4-7.7-15-17.7-19.6l-15.2-7.1c-9.9-4.4-21.4-12.3-21.4-28.7c0-17,14.1-29.6,33.3-29.6
		c12.5,0,23.7,5.7,31.2,13.8l-7.1,9.1c-6.5-6.4-14.3-10.4-24-10.4c-11.9,0-19.7,6.3-19.7,16.3c0,10.7,9.2,14.7,17.5,18.4l15.1,6.9
		c12.2,5.5,21.8,13.2,21.8,29.8c0,17.5-13.7,31.5-35.8,31.6h-0.6C720.2,1517.9,707.4,1511.5,698.2,1501.5L698.2,1501.5z
		 M816.7,1501.5l8.1-9.7c7.6,8.3,18.2,13.8,29.2,13.8c13.9,0,22.1-7.3,22.1-18.1c0-11.4-7.7-15-17.7-19.6l-15.2-7.1
		c-9.9-4.4-21.4-12.3-21.4-28.7c0-17,14.1-29.6,33.3-29.6c12.5,0,23.7,5.7,31.2,13.8l-7.1,9.1c-6.5-6.4-14.3-10.4-24-10.4
		c-11.9,0-19.7,6.3-19.7,16.3c0,10.7,9.2,14.7,17.5,18.4l15.1,6.9c12.2,5.5,21.8,13.2,21.8,29.8c0,17.5-13.7,31.5-35.8,31.6h-0.6
		C838.6,1517.9,825.8,1511.5,816.7,1501.5L816.7,1501.5z M910,1470v-65.4h13.5v65.8c0,26.8,10.8,35.2,24.6,35.2
		c14,0,25.1-8.4,25.1-35.2v-65.8h12.9v65.4c0,35.7-16.4,48-38,48C926.5,1518,910,1505.7,910,1470z M1014.5,1404.6h13.5V1516h-13.5
		V1404.6z M1079,1416.6h-32v-12h77.5v12h-32v99.4H1079L1079,1416.6z M1143.4,1404.6h61v12h-47.5v34.9h40.1v12h-40.1v40.5h49.2v12
		h-62.6V1404.6z"/>
</g>
<linearGradient id="SVGID_00000182506143981314252550000005465033843047694773_" gradientUnits="userSpaceOnUse" x1="-44404.9883" y1="22644.627" x2="-44861.8086" y2="23774.2969" gradientTransform="matrix(0.253 0 0 -0.253 11896.8359 6478.0757)">
	<stop  offset="0" style="stop-color:#CB1918"/>
	<stop  offset="0.388" style="stop-color:#A2183D"/>
	<stop  offset="0.749" style="stop-color:#902869"/>
	<stop  offset="1" style="stop-color:#73358A"/>
</linearGradient>
<path style="fill-rule:evenodd;clip-rule:evenodd;fill:url(#SVGID_00000182506143981314252550000005465033843047694773_);" d="
	M580.1,645.2c11.2,23.2,21.9,43.9,31.1,61.1c15.8,29.6,30.8,54.7,46.3,77.6c4.5-15.7,10.1-32.2,17-49.3c-12-27.6-24.1-57.2-35.5-88
	c-24.9-67-47.1-139.9-59.5-210.7c-32.9-24.2-63.9-42.9-90.8-57.2C504.2,473.9,544.7,572.1,580.1,645.2L580.1,645.2z"/>
<linearGradient id="SVGID_00000038383503660315672270000002302105185163010435_" gradientUnits="userSpaceOnUse" x1="-44635.8086" y1="22551.2773" x2="-45092.6367" y2="23680.957" gradientTransform="matrix(0.253 0 0 -0.253 11896.8359 6478.0757)">
	<stop  offset="0" style="stop-color:#CB1918"/>
	<stop  offset="0.388" style="stop-color:#A2183D"/>
	<stop  offset="0.749" style="stop-color:#902869"/>
	<stop  offset="1" style="stop-color:#73358A"/>
</linearGradient>
<path style="fill-rule:evenodd;clip-rule:evenodd;fill:url(#SVGID_00000038383503660315672270000002302105185163010435_);" d="
	M527.5,644c6.3,11.1,12.9,22.2,19.8,33.5c32,52.5,69,100.9,101.9,140.3c1-4.8,2.1-9.7,3.4-14.7c-13.3-18.3-26.3-36.9-37.5-54.1
	c-16-24.7-39.2-60.4-63.4-104.4c-41.4-75.5-85.6-175.2-100.9-284.7c-13-5.9-24.3-10.5-33.5-14C430.5,444.1,468.1,540.6,527.5,644
	L527.5,644z"/>
<linearGradient id="SVGID_00000100361243846697323140000000706090803238416561_" gradientUnits="userSpaceOnUse" x1="-44001.5859" y1="22807.752" x2="-44458.418" y2="23937.4336" gradientTransform="matrix(0.253 0 0 -0.253 11896.8359 6478.0757)">
	<stop  offset="0" style="stop-color:#CB1918"/>
	<stop  offset="0.388" style="stop-color:#A2183D"/>
	<stop  offset="0.749" style="stop-color:#902869"/>
	<stop  offset="1" style="stop-color:#73358A"/>
</linearGradient>
<path style="fill-rule:evenodd;clip-rule:evenodd;fill:url(#SVGID_00000100361243846697323140000000706090803238416561_);" d="
	M699.1,573.4c4.2,24.8,9,50,14.3,74.9c0.5,2.4,1,4.7,1.5,7.1c10.5-17,22.4-34.2,36-51.5c-12.6-15.9-25.6-31.5-39-46.7
	c-6.2-7-12.4-13.8-18.6-20.4C695.1,549,697,561.1,699.1,573.4L699.1,573.4z"/>
<path class="st14" d="M1142.7,400.3c-14.8,72-40.9,138.7-68.7,195.7c5.6,5.6,11.1,11.3,16.4,16.8c39.6-73.6,67.7-143.9,83.4-214.5
	C1164.7,398.8,1154.3,399.3,1142.7,400.3z M1023.2,422.4c-5.4,34.4-13.3,69.4-22.7,104.1c16.4,14.8,34.3,31.3,51.8,48.3
	c22-52.5,42.6-111.4,54.7-170.2C1081.7,408.1,1053.2,413.8,1023.2,422.4L1023.2,422.4z"/>
<linearGradient id="SVGID_00000072989648191765064960000013392966258828807602_" gradientUnits="userSpaceOnUse" x1="-43062.7734" y1="23447.1875" x2="-43725.7031" y2="22723.0664" gradientTransform="matrix(0.253 0 0 -0.253 11896.8359 6478.0757)">
	<stop  offset="0" style="stop-color:#ADD816"/>
	<stop  offset="1" style="stop-color:#DBD704"/>
</linearGradient>
<path style="fill-rule:evenodd;clip-rule:evenodd;fill:url(#SVGID_00000072989648191765064960000013392966258828807602_);" d="
	M786.6,562.4c-13,13.8-24.9,27.7-35.7,41.5c47.3,59.8,82.5,116.7,108,164.2c9.3-35.8,18.9-75.4,27.5-115.9
	c5.6-26.2,10.7-52.7,15.1-78.8c6.2-36.5,11.3-72.9,15.2-108.8C871.6,488.1,826.9,519.7,786.6,562.4z M1074,596
	c-1.1,2.2-2.1,4.4-3.2,6.5c-31.4,63.4-64.4,114.3-85.3,146.4c-24.1,37.1-56.5,80.5-82.2,113.8c0.9,2.5,1.8,4.7,2.7,6.9
	c39.8-43.4,99.2-113.3,147.3-192.2c12.1-19.8,23.4-39.3,33.9-58.6c1.1-2,2.2-4,3.3-6C1085.1,607.3,1079.6,601.7,1074,596L1074,596z
	 M1000.4,526.4l-1.2,4.5c-30.5,110.2-77,216.9-113.7,290.5c4,8.7,7.6,16.9,10.8,24.3c34-40.4,61.9-81.3,93-139.4
	c17.1-32,39.2-75.5,60.2-125.1l2.8-6.6C1034.7,557.7,1016.8,541.2,1000.4,526.4L1000.4,526.4z"/>
<linearGradient id="SVGID_00000062900981622959103930000015681494993681953715_" gradientUnits="userSpaceOnUse" x1="-43564.0938" y1="22055.8926" x2="-44128.4141" y2="23007.5527" gradientTransform="matrix(0.253 0 0 -0.253 11896.8359 6478.0757)">
	<stop  offset="0" style="stop-color:#E1282B"/>
	<stop  offset="0.388" style="stop-color:#E3402A"/>
	<stop  offset="0.702" style="stop-color:#E76226"/>
	<stop  offset="1" style="stop-color:#F19A0A"/>
</linearGradient>
<path style="fill-rule:evenodd;clip-rule:evenodd;fill:url(#SVGID_00000062900981622959103930000015681494993681953715_);" d="
	M830.9,917.3c24.8-25.7,46.1-48.5,65.4-71.5c-3.2-7.5-6.8-15.6-10.8-24.3C859.4,873.5,838.2,909,830.9,917.3z"/>
<linearGradient id="SVGID_00000092442088599038354060000013310843586315656615_" gradientUnits="userSpaceOnUse" x1="-43528.0312" y1="22077.2773" x2="-44092.3516" y2="23028.9375" gradientTransform="matrix(0.253 0 0 -0.253 11896.8359 6478.0757)">
	<stop  offset="0" style="stop-color:#E1282B"/>
	<stop  offset="0.388" style="stop-color:#E3402A"/>
	<stop  offset="0.702" style="stop-color:#E76226"/>
	<stop  offset="1" style="stop-color:#F19A0A"/>
</linearGradient>
<path style="fill-rule:evenodd;clip-rule:evenodd;fill:url(#SVGID_00000092442088599038354060000013310843586315656615_);" d="
	M861.4,915.8c1.3-1.3,18.9-18.2,44.6-46.1c-0.9-2.2-1.7-4.5-2.7-6.9C880.3,892.5,862.7,914.1,861.4,915.8z"/>
<linearGradient id="SVGID_00000155119136614573133300000005481341240964882090_" gradientUnits="userSpaceOnUse" x1="-43623.9766" y1="22020.3848" x2="-44188.2969" y2="22972.0449" gradientTransform="matrix(0.253 0 0 -0.253 11896.8359 6478.0757)">
	<stop  offset="0" style="stop-color:#E1282B"/>
	<stop  offset="0.388" style="stop-color:#E3402A"/>
	<stop  offset="0.702" style="stop-color:#E76226"/>
	<stop  offset="1" style="stop-color:#F19A0A"/>
</linearGradient>
<path style="fill-rule:evenodd;clip-rule:evenodd;fill:url(#SVGID_00000155119136614573133300000005481341240964882090_);" d="
	M714.9,655.4c29.3,137.2,69.5,263,69.5,263h31.7c0,0,20.4-63.9,42.8-150.3c-25.5-47.6-60.7-104.4-108-164.2
	C737.3,621.1,725.4,638.4,714.9,655.4z"/>
<linearGradient id="SVGID_00000143578229492924261580000013111558812484383877_" gradientUnits="userSpaceOnUse" x1="-43935.0391" y1="21835.9277" x2="-44499.3594" y2="22787.5879" gradientTransform="matrix(0.253 0 0 -0.253 11896.8359 6478.0757)">
	<stop  offset="0" style="stop-color:#E1282B"/>
	<stop  offset="0.388" style="stop-color:#E3402A"/>
	<stop  offset="0.702" style="stop-color:#E76226"/>
	<stop  offset="1" style="stop-color:#F19A0A"/>
</linearGradient>
<path style="fill-rule:evenodd;clip-rule:evenodd;fill:url(#SVGID_00000143578229492924261580000013111558812484383877_);" d="
	M657.5,783.9c32,47.6,65.8,85.5,112.1,133.4c-10.8-12.3-52.5-84.8-95-182.7C667.6,751.7,662,768.3,657.5,783.9L657.5,783.9z"/>
<linearGradient id="SVGID_00000053543911944120086360000015034889561027401861_" gradientUnits="userSpaceOnUse" x1="-44039.3359" y1="21774.0781" x2="-44603.6562" y2="22725.748" gradientTransform="matrix(0.253 0 0 -0.253 11896.8359 6478.0757)">
	<stop  offset="0" style="stop-color:#E1282B"/>
	<stop  offset="0.388" style="stop-color:#E3402A"/>
	<stop  offset="0.702" style="stop-color:#E76226"/>
	<stop  offset="1" style="stop-color:#F19A0A"/>
</linearGradient>
<path style="fill-rule:evenodd;clip-rule:evenodd;fill:url(#SVGID_00000053543911944120086360000015034889561027401861_);" d="
	M649.1,817.8c48.4,57.9,88,96,90,98c-2.1-2.6-45.8-56.3-86.7-112.7C651.2,808.1,650.1,813,649.1,817.8L649.1,817.8z"/>
</svg>
